<svg width="24" height="24" viewBox="0 0 24 24" fill="none" xmlns="http://www.w3.org/2000/svg">
<path d="M21 7V17C21 20 19.5 22 16 22H8C4.5 22 3 20 3 17V7C3 4 4.5 2 8 2H16C19.5 2 21 4 21 7Z" stroke="black" stroke-width="1.5" stroke-miterlimit="10" stroke-linecap="round" stroke-linejoin="round"/>
<path d="M14.5 4.5V6.5C14.5 7.6 15.4 8.5 16.5 8.5H18.5" stroke="black" stroke-width="1.5" stroke-miterlimit="10" stroke-linecap="round" stroke-linejoin="round"/>
<path d="M7.47989 15.4901C7.14989 14.4601 7.53989 13.1901 8.60989 12.8401C9.17989 12.6601 9.87989 12.8101 10.2699 13.3601C10.6399 12.7901 11.3699 12.6601 11.9299 12.8401C13.0099 13.1901 13.3899 14.4601 13.0699 15.4901C12.5599 17.1201 10.7699 17.9701 10.2699 17.9701C9.77989 17.9601 8.00989 17.1301 7.47989 15.4901Z" stroke="black" stroke-width="1.5" stroke-linecap="round" stroke-linejoin="round"/>
</svg>
