<svg width="23" height="22" viewBox="0 0 23 22" fill="none" xmlns="http://www.w3.org/2000/svg">
<path fill-rule="evenodd" clip-rule="evenodd" d="M11.2049 1.78137L11.0506 1.78122C10.3231 1.78013 9.68468 1.77918 9.11562 2.00275C8.61803 2.19825 8.17741 2.51543 7.83411 2.92526C7.49158 3.33418 7.29435 3.84743 7.09699 4.43004H5.20517H3.43245C2.84399 4.43004 2.36694 4.90708 2.36694 5.49554C2.36694 6.08401 2.84399 6.56105 3.43245 6.56105H4.2086L4.67326 13.5036L4.68352 13.6574C4.75648 14.7527 4.80636 15.5015 5.01755 16.1429C5.58567 17.8684 6.99381 19.1854 8.75334 19.637C9.40742 19.8049 10.1579 19.8047 11.2556 19.8043L11.4097 19.8043L11.5638 19.8043C12.6616 19.8047 13.412 19.8049 14.0661 19.637C15.8256 19.1854 17.2338 17.8684 17.8019 16.1429C18.0131 15.5015 18.0629 14.7527 18.1359 13.6574L18.1462 13.5036L18.6108 6.56105H19.387C19.9754 6.56105 20.4525 6.08401 20.4525 5.49554C20.4525 4.90708 19.9754 4.43004 19.387 4.43004H17.6143H15.7221C15.5248 3.84743 15.3276 3.33418 14.985 2.92526C14.6417 2.51543 14.2011 2.19825 13.7035 2.00275C13.1345 1.77918 12.496 1.78013 11.7686 1.78122L11.6142 1.78137H11.2049ZM14.9311 6.56105C14.9469 6.5614 14.9628 6.56141 14.9786 6.56105H16.475L16.0199 13.3613C15.9324 14.6695 15.8935 15.1249 15.7778 15.4765C15.4369 16.5117 14.592 17.3019 13.5363 17.5729C13.1778 17.6649 12.7208 17.6733 11.4097 17.6733C10.0986 17.6733 9.64159 17.6649 9.28314 17.5729C8.22742 17.3019 7.38253 16.5117 7.04166 15.4765C6.92593 15.1249 6.88707 14.6695 6.79951 13.3613L6.34437 6.56105H7.84048C7.85637 6.56141 7.87222 6.5614 7.88803 6.56105H14.9311ZM13.4392 4.43004C13.4074 4.36778 13.3802 4.32809 13.3514 4.29367C13.237 4.15706 13.0901 4.05134 12.9243 3.98617C12.7819 3.93025 12.5877 3.91238 11.6142 3.91238H11.2049C10.2315 3.91238 10.0372 3.93025 9.89488 3.98617C9.72901 4.05134 9.58214 4.15706 9.46771 4.29367C9.43888 4.32809 9.41175 4.36778 9.37998 4.43004H13.4392ZM10.7019 9.02705C10.7019 8.43859 10.2249 7.96155 9.63641 7.96155C9.04795 7.96155 8.57091 8.43859 8.57091 9.02705V15.2072C8.57091 15.7957 9.04795 16.2727 9.63641 16.2727C10.2249 16.2727 10.7019 15.7957 10.7019 15.2072V9.02705ZM13.1822 7.96155C13.7707 7.96155 14.2477 8.43859 14.2477 9.02705V12.5586C14.2477 13.147 13.7707 13.6241 13.1822 13.6241C12.5938 13.6241 12.1167 13.147 12.1167 12.5586V9.02705C12.1167 8.43859 12.5938 7.96155 13.1822 7.96155Z" fill="black"/>
</svg>
