<svg width="46" height="53" viewBox="0 0 46 53" fill="none" xmlns="http://www.w3.org/2000/svg">
<g clip-path="url(#clip0_209_1800)">
<rect width="46" height="53" fill="#FF2121"/>
<path fill-rule="evenodd" clip-rule="evenodd" d="M22.4574 15.9344L22.3029 15.9342C21.5746 15.9331 20.9355 15.9322 20.3659 16.1562C19.8679 16.352 19.4271 16.6698 19.0838 17.0803C18.6912 17.5498 18.49 18.1564 18.2607 18.8477L18.2318 18.9346H15.9998H13.9998C13.4114 18.9346 12.9343 19.4116 12.9343 20.0001C12.9343 20.5885 13.4114 21.0656 13.9998 21.0656H15.003L15.5376 29.0843L15.54 29.121C15.6007 30.0316 15.6498 30.7676 15.7301 31.3663C15.8129 31.9832 15.9369 32.5263 16.1813 33.0371C16.7589 34.2445 17.7697 35.1903 19.0129 35.6863C19.5389 35.8961 20.089 35.9837 20.71 36.0253C21.3127 36.0656 22.0504 36.0656 22.9631 36.0656H22.9998H23.0366C23.9492 36.0656 24.687 36.0656 25.2897 36.0253C25.9107 35.9837 26.4608 35.8961 26.9868 35.6863C28.2299 35.1903 29.2408 34.2445 29.8184 33.0371C30.0628 32.5263 30.1868 31.9832 30.2695 31.3663C30.3499 30.7677 30.3989 30.0316 30.4596 29.121L30.4621 29.0843L30.9967 21.0656H31.9998C32.5883 21.0656 33.0653 20.5885 33.0653 20.0001C33.0653 19.4116 32.5883 18.9346 31.9998 18.9346H29.9998H27.768L27.7392 18.8477L27.7392 18.8477C27.5099 18.1564 27.3087 17.5498 26.9161 17.0803C26.5728 16.6698 26.1319 16.352 25.6339 16.1562C25.0644 15.9322 24.4252 15.9331 23.697 15.9342L23.5424 15.9344H22.4574ZM26.9859 21.0656C26.9951 21.0657 27.0044 21.0657 27.0137 21.0656H28.8609L28.3358 28.9425C28.2721 29.8984 28.2272 30.5633 28.1575 31.083C28.0891 31.5925 28.005 31.8897 27.896 32.1175C27.5495 32.8419 26.9429 33.4094 26.1971 33.707C25.9625 33.8006 25.6604 33.8647 25.1474 33.899C24.6242 33.934 23.9579 33.9346 22.9998 33.9346C22.0418 33.9346 21.3754 33.934 20.8522 33.899C20.3393 33.8647 20.0372 33.8006 19.8026 33.707C19.0567 33.4094 18.4502 32.8419 18.1036 32.1175C17.9946 31.8897 17.9106 31.5925 17.8422 31.083C17.7725 30.5633 17.7276 29.8984 17.6639 28.9425L17.1387 21.0656H18.9862C18.9955 21.0657 19.0047 21.0657 19.014 21.0656H26.9859ZM25.5136 18.9346C25.3998 18.6243 25.3447 18.5231 25.2814 18.4474C25.1669 18.3105 25.02 18.2046 24.854 18.1393C24.7115 18.0833 24.517 18.0654 23.5424 18.0654H22.4574C21.4828 18.0654 21.2883 18.0833 21.1459 18.1393C20.9799 18.2046 20.8329 18.3105 20.7185 18.4474C20.6552 18.5231 20.6001 18.6243 20.4863 18.9346H25.5136ZM22.0653 23.9999C22.0653 23.4114 21.5883 22.9344 20.9998 22.9344C20.4114 22.9344 19.9343 23.4114 19.9343 23.9999V30.9999C19.9343 31.5884 20.4114 32.0654 20.9998 32.0654C21.5883 32.0654 22.0653 31.5884 22.0653 30.9999V23.9999ZM25 22.9344C25.5884 22.9344 26.0655 23.4114 26.0655 23.9999V27.9999C26.0655 28.5884 25.5884 29.0654 25 29.0654C24.4115 29.0654 23.9345 28.5884 23.9345 27.9999V23.9999C23.9345 23.4114 24.4115 22.9344 25 22.9344Z" fill="white"/>
</g>
<defs>
<clipPath id="clip0_209_1800">
<rect width="46" height="53" fill="white"/>
</clipPath>
</defs>
</svg>
