<svg width="70" height="60" viewBox="0 0 70 60" fill="none" xmlns="http://www.w3.org/2000/svg">
<path fill-rule="evenodd" clip-rule="evenodd" d="M34.6137 3.63955C34.8648 3.55798 35.1352 3.55798 35.3863 3.63955C35.4829 3.67096 35.6096 3.73841 35.8292 3.92485C36.0556 4.11698 36.3276 4.38825 36.7324 4.79301L39.4697 7.53027L40.0638 8.12439C40.6079 8.66848 40.7901 8.8575 40.9184 9.06696C41.0418 9.26827 41.1327 9.48775 41.1878 9.71733C41.2452 9.9562 41.25 10.2187 41.25 10.9882V16.1999C41.25 17.0524 41.2494 17.6466 41.2116 18.1093C41.1745 18.5631 41.1054 18.8239 41.0048 19.0214C40.789 19.4448 40.4448 19.789 40.0215 20.0047C39.824 20.1053 39.5632 20.1745 39.1093 20.2116C38.6467 20.2494 38.0525 20.2499 37.2 20.2499H32.8C31.9475 20.2499 31.3533 20.2494 30.8907 20.2116C30.4368 20.1745 30.176 20.1053 29.9785 20.0047C29.5552 19.789 29.211 19.4448 28.9952 19.0214C28.8946 18.8239 28.8255 18.5631 28.7884 18.1093C28.7506 17.6466 28.75 17.0524 28.75 16.1999V10.9882C28.75 10.2187 28.7548 9.9562 28.8122 9.71733C28.8673 9.48775 28.9582 9.26827 29.0816 9.06696C29.2099 8.8575 29.3921 8.66848 29.9362 8.12438L30.5303 7.53027L33.2676 4.79301C33.6724 4.38825 33.9445 4.11698 34.1708 3.92485C34.3904 3.73841 34.5171 3.67096 34.6137 3.63955ZM29.4699 6.46937L32.2069 3.73235L32.2284 3.71084C32.6061 3.33313 32.9214 3.01786 33.2 2.78134C33.4906 2.53467 33.7902 2.32993 34.1502 2.21296C34.7025 2.0335 35.2975 2.0335 35.8498 2.21296C36.2098 2.32993 36.5094 2.53467 36.8 2.78134C37.0786 3.01785 37.3939 3.33312 37.7715 3.71082L37.7931 3.73235L40.5294 6.46865C40.5297 6.46897 40.53 6.46929 40.5303 6.46961L41.1244 7.06373L41.1849 7.12415C41.2237 7.16295 41.2615 7.20074 41.2984 7.23765L45.5303 11.4696C45.8232 11.7625 45.8232 12.2374 45.5303 12.5303C45.2374 12.8232 44.7626 12.8232 44.4697 12.5303L42.75 10.8106C42.75 10.8409 42.75 10.8716 42.75 10.9027L42.75 10.9882V16.1999V16.2321C42.75 17.0449 42.75 17.7005 42.7066 18.2314C42.662 18.778 42.5676 19.2582 42.3413 19.7024C41.9818 20.408 41.4081 20.9817 40.7025 21.3412C40.2582 21.5676 39.7781 21.6619 39.2315 21.7066C38.7006 21.75 38.045 21.75 37.2321 21.7499H37.2H32.8H32.7679C31.955 21.75 31.2994 21.75 30.7685 21.7066C30.2219 21.6619 29.7418 21.5676 29.2975 21.3412C28.5919 20.9817 28.0183 20.408 27.6587 19.7024C27.4324 19.2582 27.338 18.778 27.2934 18.2314C27.25 17.7005 27.25 17.0449 27.25 16.232L27.25 16.1999V10.9882L27.25 10.9027C27.25 10.8716 27.25 10.8409 27.25 10.8106L25.5303 12.5303C25.2374 12.8232 24.7626 12.8232 24.4697 12.5303C24.1768 12.2374 24.1768 11.7625 24.4697 11.4696L28.7011 7.23821C28.7381 7.20112 28.7761 7.16315 28.8151 7.12415L28.8151 7.12415L28.8756 7.06372L29.4697 6.46961C29.4697 6.46953 29.4698 6.46945 29.4699 6.46937Z" fill="#22282F"/>
</svg>
