<svg width="70" height="60" viewBox="0 0 70 60" fill="none" xmlns="http://www.w3.org/2000/svg">
<path fill-rule="evenodd" clip-rule="evenodd" d="M33.6085 2.25H33.5797H33.5797C32.6923 2.25 31.9855 2.24999 31.408 2.29229C30.8148 2.33575 30.3072 2.42635 29.8246 2.63276C29.0353 2.97039 28.3523 3.51563 27.8481 4.2105C27.5399 4.63531 27.339 5.11018 27.1652 5.67903C26.9959 6.23285 26.8393 6.92202 26.6426 7.78735L26.6363 7.81541L25.7366 11.7738L25.729 11.8073C25.5961 12.3922 25.5199 12.7271 25.4703 13.067C25.3823 13.6694 25.3574 14.2792 25.396 14.8867C25.4178 15.2295 25.4664 15.5696 25.5512 16.1633L25.5561 16.1973L25.5761 16.3376C25.7553 17.5937 25.8698 18.3971 26.189 19.0602C26.7569 20.2399 27.7866 21.133 29.0348 21.5283C29.7363 21.7505 30.5479 21.7503 31.8167 21.75L31.9584 21.75H38.0412L38.1829 21.75C39.4517 21.7503 40.2633 21.7505 40.9648 21.5283C42.213 21.133 43.2427 20.2399 43.8106 19.0602C44.1298 18.3971 44.2444 17.5937 44.4235 16.3376L44.4235 16.3376L44.4435 16.1973L44.4484 16.1632C44.5332 15.5695 44.5818 15.2295 44.6036 14.8867C44.6422 14.2792 44.6173 13.6694 44.5293 13.067C44.4797 12.7272 44.4035 12.3922 44.2706 11.8074L44.263 11.7738L43.3633 7.81541L43.3569 7.78726L43.3569 7.78716C43.1603 6.92192 43.0037 6.23281 42.8344 5.67903C42.6606 5.11018 42.4597 4.63531 42.1515 4.2105C41.6474 3.51563 40.9643 2.97039 40.175 2.63276C39.6924 2.42635 39.1848 2.33575 38.5916 2.29229C38.0141 2.24999 37.3073 2.25 36.4199 2.25H36.4199H36.3911H34.9998H33.6085ZM30.4146 4.01189C30.6855 3.89597 31.0106 3.82542 31.5176 3.78829C32.0339 3.75047 32.6858 3.75 33.6085 3.75H34.9998H36.3911C37.3138 3.75 37.9657 3.75047 38.482 3.78829C38.989 3.82542 39.3141 3.89597 39.585 4.01189C40.1251 4.2429 40.5925 4.61596 40.9374 5.0914C41.1105 5.32996 41.2514 5.63132 41.3999 6.11742C41.5512 6.61257 41.6962 7.24814 41.9006 8.14784L42.8003 12.1063C42.937 12.7079 42.9997 12.9858 43.04 13.25H40.7124L40.6186 13.25C40.0843 13.2496 39.6642 13.2493 39.2711 13.3687C38.9251 13.4737 38.6033 13.6459 38.324 13.8755C38.0066 14.1364 37.7738 14.4861 37.4778 14.9309L37.4778 14.9309L37.4258 15.0089L37.3257 15.159C36.9525 15.7189 36.8462 15.8645 36.7231 15.9657C36.5962 16.07 36.4499 16.1483 36.2927 16.1961C36.1402 16.2424 35.9601 16.25 35.2872 16.25H34.7124C34.0396 16.25 33.8594 16.2424 33.7069 16.1961C33.5497 16.1483 33.4034 16.07 33.2765 15.9657C33.1534 15.8645 33.0471 15.7189 32.6739 15.159L32.5738 15.0089L32.5218 14.9309C32.2258 14.4861 31.993 14.1364 31.6756 13.8755C31.3963 13.6459 31.0745 13.4737 30.7285 13.3687C30.3354 13.2493 29.9153 13.2496 29.381 13.25L29.2872 13.25H26.9596C26.9999 12.9858 27.0626 12.7079 27.1993 12.1062L28.099 8.14784C28.3034 7.24814 28.4484 6.61257 28.5997 6.11742C28.7482 5.63132 28.8891 5.32996 29.0622 5.0914C29.4071 4.61596 29.8745 4.2429 30.4146 4.01189ZM26.8905 14.75C26.8913 14.7639 26.8921 14.7777 26.893 14.7916C26.9106 15.0688 26.95 15.3482 27.041 15.9852C27.2474 17.4301 27.3351 17.9828 27.5406 18.4096C27.9291 19.2168 28.6336 19.8278 29.4877 20.0983C29.9393 20.2413 30.4988 20.25 31.9584 20.25H38.0412C39.5008 20.25 40.0603 20.2413 40.5119 20.0983C41.366 19.8278 42.0705 19.2168 42.459 18.4096C42.6645 17.9828 42.7522 17.4301 42.9586 15.9852C43.0496 15.3482 43.089 15.0688 43.1066 14.7916C43.1075 14.7777 43.1083 14.7639 43.1091 14.75H40.7124C40.0396 14.75 39.8594 14.7576 39.7069 14.8039C39.5497 14.8517 39.4034 14.93 39.2765 15.0343C39.1534 15.1355 39.0471 15.2811 38.6739 15.841L38.5738 15.9911L38.5218 16.0691L38.5218 16.0691C38.2258 16.5139 37.993 16.8636 37.6756 17.1245C37.3963 17.3541 37.0745 17.5263 36.7285 17.6313C36.3354 17.7507 35.9153 17.7504 35.381 17.75L35.2872 17.75H34.7124L34.6186 17.75C34.0843 17.7504 33.6642 17.7507 33.2711 17.6313C32.9251 17.5263 32.6033 17.3541 32.324 17.1245C32.0066 16.8636 31.7738 16.5139 31.4778 16.0691L31.4258 15.9911L31.3257 15.841C30.9525 15.2811 30.8462 15.1355 30.7231 15.0343C30.5962 14.93 30.4499 14.8517 30.2927 14.8039C30.1402 14.7576 29.9601 14.75 29.2872 14.75H26.8905Z" fill="#22282F"/>
</svg>
