<svg width="70" height="60" viewBox="0 0 70 60" fill="none" xmlns="http://www.w3.org/2000/svg">
<path fill-rule="evenodd" clip-rule="evenodd" d="M31.75 7C31.75 5.20507 33.2051 3.75 35 3.75C36.7949 3.75 38.25 5.20507 38.25 7C38.25 8.79493 36.7949 10.25 35 10.25C33.2051 10.25 31.75 8.79493 31.75 7ZM35 2.25C32.3766 2.25 30.25 4.37665 30.25 7C30.25 9.62335 32.3766 11.75 35 11.75C37.6234 11.75 39.75 9.62335 39.75 7C39.75 4.37665 37.6234 2.25 35 2.25ZM28.75 19C28.75 17.2051 30.2051 15.75 32 15.75H38C39.7949 15.75 41.25 17.2051 41.25 19C41.25 19.6904 40.6904 20.25 40 20.25H30C29.3096 20.25 28.75 19.6904 28.75 19ZM40 21.75C41.5188 21.75 42.75 20.5188 42.75 19C42.75 16.3766 40.6234 14.25 38 14.25H32C29.3766 14.25 27.25 16.3766 27.25 19C27.25 20.5188 28.4812 21.75 30 21.75H40Z" fill="#22282F"/>
</svg>
